<svg xmlns="http://www.w3.org/2000/svg" data-name="Слой 1" viewBox="0 0 93.42276 85.8388375" x="0px" y="0px"><title>Безымянный-107</title><path d="M66.13462,58.74354c-.85719,1.00121.879,1.607.5829,2.91609-.4646-.49473-.89517-.77129-1.06019-1.16047-.71163-1.67832-2.324-2.22519-3.72607-2.95979C57.9268,55.44131,53.646,55.34,49.25227,55.87443a29.25252,29.25252,0,0,0-13.1031,5.046,12.34111,12.34111,0,0,0-5.47744,8.776,6.12171,6.12171,0,0,0,.89982,4.36307,6.56605,6.56605,0,0,1,.44458.90032c-.721.35664-1.016-.10845-1.31267-.464-.56716-.67979-1.07224-1.41224-1.65151-2.08088a9.18581,9.18581,0,0,0-10.3873-2.96794,13.925,13.925,0,0,0-4.92379,2.28114A14.24907,14.24907,0,0,0,9.31017,79.0752a31.29624,31.29624,0,0,0-.568,3.191c-.11535.61334-.28357,1.21672-.48616,2.06935-.34073-.3808-.57828-.54154-.65535-.75911a3.3445,3.3445,0,0,1-.07593-.87929c-.2523-3.88538-.54768-7.76864-.738-11.657-.089-1.81926.08783-3.65029.03519-5.47281-.16088-5.56814-.29337-11.1391-.592-16.70063-.26937-5.017-.70924-10.02592-1.13711-15.033C4.7278,29.56148,4.28265,25.296,3.84892,21.03c-.07932-.78031-.28576-1.547-.41059-2.32365-.07507-.467-.10579-.94122-.14971-1.34954,2.08653.251,4.02613.50217,5.97.71345,2.057.22356,4.11549.44212,6.17794.6042,3.8748.30449,7.749.65866,11.63068.82268q6.86724.29018,13.74629.279c7.29722-.02359,14.5975-.07144,21.88967-.31372,4.18118-.13892,8.34554-.72956,12.52371-1.02992,4.58407-.32957,9.05968-1.31351,13.57405-2.07291,1.26043-.212,2.54958-.25214,3.82511-.376,1.07627-.10453,2.151-.22567,3.22845-.31656a4.34308,4.34308,0,0,1,.85682.13748c-1.00317.99143-2.11525.73025-3.12838.834-1.02011.10446-2.04118.19968-3.14221.30678-.102,1.69794-.22262,3.25957-.28307,4.82352-.08,2.06933-.09589,4.1411-.17326,6.21056a2.66641,2.66641,0,0,0,.99485,2.594,1.4875,1.4875,0,0,1,.52422,1.85741c-.29317.70363.0219.99352.60452,1.19425,2.41761-1.82148,3.14313-1.87369,4.44565-.29575-.53866.4946-.88686-.12746-1.29316-.2379A2.13372,2.13372,0,0,0,92.848,34.65607c-.01267.15867.15766.332.23362.4794,2.33774-.31023,3.29613.12049,3.21746,1.409-1.99827-1.01656-2.65554-.89477-2.99987.61979.72721.28813,1.74054-.1618,2.23744.73834a6.952,6.952,0,0,1,.37715,1.07158,7.59394,7.59394,0,0,0-1.9086-.76368c-.4511-.04457-.94389.33277-1.67222.62386,1.25266.59138,2.64057.65485,2.60607,2.16386-.80978-.35-1.54861-.64664-2.26691-.98665a1.934,1.934,0,0,0-1.76917.13032,3.63446,3.63446,0,0,1-3.86125-.69051c-1.15961.39267-1.27632,1.52873-1.74846,2.46065-.51249-1.09867-.27428-1.82114.97914-3.22972-.65282-1.4964-1.27-1.49577-3.171.07182a1.046,1.046,0,0,1,.54188-1.44751,10.86657,10.86657,0,0,1,1.36755-.506c.28427-.12609.71555-.32624.74181-.53572a1.44589,1.44589,0,0,0-.34025-1.03746,1.55886,1.55886,0,0,0-1.88579-.38828,5.24817,5.24817,0,0,1-1.02961.19216c.7575-1.244,1.50051-1.31049,3.77821-.44026A1.76572,1.76572,0,0,0,85.91862,32.48a1.63857,1.63857,0,0,0-2.40421-.22832c.144-1.44459,1.8843-1.48384,2.936-.218.27669.33305.50182.70894.85546,1.21522.19593-.35869.457-.612.41416-.7937-.33785-1.4329.35369-2.24859,1.70888-2.77482V17.10724c-.8037.243-1.48439.48831-2.184.65363A20.67654,20.67654,0,0,0,78.3858,22.604a32.70478,32.70478,0,0,0-8.22094,11.59611,67.43386,67.43386,0,0,0-3.87827,11.14046,33.76685,33.76685,0,0,0-.97715,11.58563A6.81122,6.81122,0,0,0,66.13462,58.74354Zm16.558-40.13638-.08572-.24934c-.242.01088-.48594.00584-.72567.03515-1.75959.21538-3.51278.51365-5.27844.64227a18.36793,18.36793,0,0,0-10.6367,4.28261,34.40867,34.40867,0,0,0-7.46661,8.31861c-2.12295,3.4063-4.08107,6.80741-4.55877,10.93068a21.80632,21.80632,0,0,0,.21168,6.74257,2.60957,2.60957,0,0,0,1.27428,1.84863q4.279,2.76652,8.55241,5.54161c.05917.03819.18165-.02165.402-.05505,0-.50928-.03893-1.045.00659-1.57343a71.19575,71.19575,0,0,1,.7399-7.63815A57.90858,57.90858,0,0,1,70.72872,31.307a31.5167,31.5167,0,0,1,10.2588-11.60137C81.54776,19.32743,82.12389,18.97275,82.69264,18.60716ZM61.95235,56.5395l.162-.27768c-.39777-.26494-.78734-.54332-1.19485-.79232-1.21869-.7446-2.50314-1.39675-3.655-2.2324a24.31983,24.31983,0,0,0-7.43937-3.72182,16.1347,16.1347,0,0,0-6.99731-.48324,22.86828,22.86828,0,0,0-8.97052,3.56575c-3.69743,2.31136-5.59392,5.70832-6.60056,9.7584a2.39053,2.39053,0,0,0,.11389,1.4117c.59355,1.40351,1.2737,2.77061,1.93166,4.14641.13138.27474.31106.52638.55959.94045.21522-.60936.38794-1.01673.5036-1.43971A12.84047,12.84047,0,0,1,33.4856,62.1218a17.35689,17.35689,0,0,1,4.76967-3.4251A25.544,25.544,0,0,1,46.63206,55.527c2.14265-.30981,4.29647-.61346,6.45526-.72247a15.38844,15.38844,0,0,1,7.90185,1.46371A5.02166,5.02166,0,0,0,61.95235,56.5395Zm-8.67112-7.16208a4.26288,4.26288,0,0,0,.091-.51719,2.897,2.897,0,0,0-.03852-.44075,20.95942,20.95942,0,0,1,1.661-11.93605,56.249,56.249,0,0,1,3.65647-6.22187,28.51737,28.51737,0,0,1,6.39938-7.09626c1.37-1.1501,2.85735-2.16038,4.55913-3.43366-2.09651.14568-3.8938.31435-5.69485.38006a7.16334,7.16334,0,0,0-3.22816.90677,27.4368,27.4368,0,0,0-6.78916,5.85634,19.76366,19.76366,0,0,0-4.58,7.67237A32.329,32.329,0,0,0,48.12044,38.489c-.35051,2.02433-.50673,4.0852-.66824,6.13662a1.46774,1.46774,0,0,0,.50906,1.11488C49.66931,46.96931,51.4304,48.12444,53.28123,49.37742Zm-6.8223-5.61574a32.84114,32.84114,0,0,1,3.82726-13.2359c2.35113-4.06052,5.75136-7.16022,9.498-10.13868a4.43977,4.43977,0,0,0-.78994-.14685c-1.573.03137-3.14928.03262-4.71611.15314a5.16746,5.16746,0,0,0-1.45171.62814,20.55678,20.55678,0,0,0-8.424,6.53056A27.16622,27.16622,0,0,0,42.025,31.45973a24.19962,24.19962,0,0,0-2.5611,8.50973C41.78061,41.22748,43.67891,43.19706,46.45893,43.76168Zm-16.814,27.83248a7.11532,7.11532,0,0,0-.23315-1.69812c-.92945-2.06082-1.86506-4.123-2.91968-6.12078a3.5035,3.5035,0,0,0-1.57077-1.46833,13.8187,13.8187,0,0,0-7.06713-1.07541,11.1,11.1,0,0,0-7.217,3.9225c-1.86134,2.05364-3.35911,4.26108-2.91775,7.25061.04984.3375-.01477.69026.00909,1.03349.12645,1.82005.26421,3.63932.398,5.45887a1.10853,1.10853,0,0,0,.49672-.65042,18.10333,18.10333,0,0,1,2.94739-5.58419c2.61592-3.08969,6.16955-4.24852,10.05977-4.57462a9.31245,9.31245,0,0,1,2.04565.187C25.92494,68.59411,27.599,69.99133,29.64493,71.59416ZM51.2811,49.233l.105-.20886a6.34373,6.34373,0,0,0-.50841-.443c-2.00877-1.41768-4.01427-2.84033-6.04036-4.233a4.07339,4.07339,0,0,0-1.20175-.51622c-2.89435-.81105-5.55609.04488-8.13321,1.24592a24.70068,24.70068,0,0,0-7.82,6.19635,12.56014,12.56014,0,0,0-2.60731,5.22859c-.55784,2.01079.47855,3.51507,1.4124,5.33164.39277-1.01736.68592-1.74654.95671-2.48394a12.931,12.931,0,0,1,3.52189-5.38283,22.35439,22.35439,0,0,1,13.15306-5.74388,13.426,13.426,0,0,1,5.94432.7238A9.6069,9.6069,0,0,0,51.2811,49.233ZM51.341,20.52a9.5054,9.5054,0,0,0-4.83174.0887c-4.52817,1.54122-8.47613,3.8887-11.15755,8.0456A12.972,12.972,0,0,0,33.36246,34.892a1.416,1.416,0,0,0,.75489,1.46769c1.10548.6388,2.13271,1.41188,3.22627,2.07323a6.65553,6.65553,0,0,0,1.37212.45054C40.40513,30.89852,44.18213,24.57423,51.341,20.52ZM42.01281,42.40378a11.20288,11.20288,0,0,1-1.47306-.95409,8.05658,8.05658,0,0,0-5.09806-1.91859,8.09324,8.09324,0,0,0-4.96789.99154,16.71437,16.71437,0,0,0-7.86054,10.44164c-.1188.47257-.40267,1.04333-.24791,1.41963.52718,1.28178.77707,2.72237,1.91448,3.9.96933-4.23974,3.80939-7.00014,6.89859-9.46959A19.52818,19.52818,0,0,1,42.01281,42.40378Zm-9.5094-7.69843c.20284-.90719.40162-1.61577.51457-2.33776a10.91393,10.91393,0,0,1,1.91472-4.438,20.3197,20.3197,0,0,1,8.18689-6.81166,8.52831,8.52831,0,0,0,.92763-.64657c-2.96873,0-5.67757-.00326-8.38635.00565-.24076.0008-.47964.09633-.72211.12158-1.69661.17649-2.80025,1.35186-4,2.36521A10.68334,10.68334,0,0,0,27.221,30.28048a1.78286,1.78286,0,0,0,1.00749,2.03483c.8151.44821,1.52413,1.08645,2.32861,1.55785A16.70523,16.70523,0,0,0,32.50341,34.70535ZM25.49776,61.67689c-.64982-1.5007-1.237-2.63891-1.63563-3.83967a3.43,3.43,0,0,0-2.24243-2.15416,9.83739,9.83739,0,0,0-4.204-.55816c-4.58583.24-7.37185,3.0641-9.63745,6.651a.93892.93892,0,0,0-.15356.41221,39.40891,39.40891,0,0,0,.034,5.565C11.85979,60.91509,17.69583,58.91482,25.49776,61.67689Zm-3.848-10.66709c.18918-.47429.27531-.63842.32114-.81312a15.47944,15.47944,0,0,1,2.54951-5.26928,19.57669,19.57669,0,0,1,4.18455-4.30157,8.46676,8.46676,0,0,1,5.75291-1.89909c.56429.04307,1.13465.00647,1.72661.00647-.05292-.21049-.04554-.34348-.10166-.38071-1.47222-.9759-2.93437-1.96915-4.4414-2.88874a2.01819,2.01819,0,0,0-1.26345-.19959,14.061,14.061,0,0,0-7.03276,2.80353c-2.0525,1.70188-3.947,3.59053-4.26786,6.46641a2.28619,2.28619,0,0,0,.04818,1.119C19.88581,47.35279,20.70637,49.02556,21.64974,51.0098Zm-1.0061-.56436c-1.01715-2.18711-1.85689-4.06558-2.777-5.90376a1.392,1.392,0,0,0-1.00447-.69208,18.86462,18.86462,0,0,0-4.2225.35763,10.65027,10.65027,0,0,0-4.60529,2.82159C7.58866,47.45336,7.01427,48.0395,7,48.56542c-.04567,1.678.14409,3.36249.26619,5.44053C11.11534,50.04944,15.46358,49.08944,20.64364,50.44544Zm11.74329-29.786-.21376-.22567c-1.86061-.08141-3.72086-.21209-5.582-.226a4.19537,4.19537,0,0,0-3.064,1.20071c-1.65468,1.64909-2.32053,3.79592-3.07814,5.97032l5.90665,3.50212C26.56569,26.32583,28.82687,23.10877,32.38693,20.65945ZM29.9647,34.65025l-.04357-.37063c-.51-.37512-1.05159-.71463-1.52369-1.13262a4.59061,4.59061,0,0,0-3.72283-1.32387,8.18162,8.18162,0,0,0-2.97112.65765,9.4776,9.4776,0,0,0-4.30244,4.69088c-.99849,2.52826-.77423,3.979.99832,6.14965a14.05243,14.05243,0,0,1,4.56968-5.84837A15.7023,15.7023,0,0,1,29.9647,34.65025ZM22.63181,55.03746c-.47241-1.13156-.8194-2.09069-1.279-2.99242a1.69368,1.69368,0,0,0-.911-.6779,11.02841,11.02841,0,0,0-12.0642,2.78449,3.23708,3.23708,0,0,0-1.01373,1.74051,37.46283,37.46283,0,0,0,.19972,4.39658c2.0411-2.31254,3.88082-4.30519,6.59088-5.27349C16.934,54.02213,19.65709,54.43932,22.63181,55.03746ZM15.928,38.81728c1.51955-4.25775,3.89779-7.40394,8.919-8.03788-1.27552-.77738-2.24071-1.461-3.28715-1.98126a4.61841,4.61841,0,0,0-4.75734.28489,8.85128,8.85128,0,0,0-2.35025,2.60469,3.56744,3.56744,0,0,0-.54282,3.51063C14.4899,36.43682,15.23831,37.59659,15.928,38.81728Zm1.33939,4.19718c-.5855-1.10786-.99518-1.9344-1.45906-2.72927a1.38336,1.38336,0,0,0-.65319-.56c-2.60658-.98015-5.148-1.14159-7.54729.61575A2.19333,2.19333,0,0,0,6.56137,42.7128c.171.9587.1024,1.95835.17708,2.937a8.13957,8.13957,0,0,0,.2866,1.184A13.17418,13.17418,0,0,1,17.26739,43.01446Zm-2.163-4.40862c-.58806-1.03773-.952-1.78218-1.40762-2.46553a4.78682,4.78682,0,0,0-7.20616-.78553,1.15419,1.15419,0,0,0-.38506.72911c.03509,1.2969.13449,2.59205.2377,4.32506C8.94838,37.67689,11.87217,38.16907,15.10436,38.60584Zm4.50446-11.67191c.5445-1.25792.97751-2.4516,1.566-3.563.57873-1.09306,1.31518-2.10261,2.004-3.1826-.47556-.08786-.90454-.20387-1.34008-.23931-.73177-.05953-1.46837-.05637-2.20175-.09987-2.06018-.12213-2.33877.0587-2.8974,2.01172a11.24035,11.24035,0,0,0-.2842,1.43622,2.56028,2.56028,0,0,0,1.624,2.93857C18.52213,26.44047,18.967,26.6411,19.60882,26.93393Zm-.71136.50922c-1.36041-.92382-2.2922-1.8114-3.92033-1.46134a4.79068,4.79068,0,0,0-3.84421,3.32564,1.80975,1.80975,0,0,0,.03743,1.13227c.46019.901,1.02847,1.7469,1.66836,2.80227C14.06815,30.40178,15.4296,27.98884,18.89746,27.44315Zm-6.82377,6.32349L12.171,33.434c-.5504-.92431-1.09719-1.8508-1.65206-2.77243a2.322,2.322,0,0,0-3.35521-1.02643c-.57125.289-1.345.79735-1.429,1.30483a10.2407,10.2407,0,0,0,.24459,3.86042C7.88166,33.00658,9.92182,33.02252,12.07369,33.76664Zm2.65708-8.9564c-.66432-.38733-1.31979-.79086-1.99468-1.15876a2.518,2.518,0,0,0-3.81717,1.72379,1.80943,1.80943,0,0,0,.02855,1.11106c.34873.74373.8172,1.43133,1.29322,2.236C11.36715,26.95506,12.46232,25.31782,14.73077,24.81024Zm1.78941-5.2251c-.523-.07749-1.10062-.15526-1.67545-.25a2.38967,2.38967,0,0,0-2.27875,1.212,1.86268,1.86268,0,0,0,.13382,2.29913c.91.61294,1.8855,1.12874,2.74562,1.63377C15.81277,22.80694,16.15143,21.2646,16.52018,19.58514Zm-5.2511,2.34624,1.04627-2.91331c-2.36186-.2113-4.62477-.41376-6.88768-.61623l-.0929.33615C7.28806,19.78911,9.24135,20.84023,11.26908,21.93138ZM9.11819,28.24791c-.2993-.59662-.61972-1.19525-.90241-1.81117-.23918-.52115-.50317-.96762-1.18659-.85084-.68291.11669-1.79729,1.05777-1.76235,1.58391.04963.7474.2043,1.4878.30525,2.17136Zm1.426-5.97527c-1.58237-.76611-2.90843-1.81009-4.82118-2.23945l2.27951,4.4616ZM5.06139,25.67306l2.1715-1.16891c-.85108-1.58091-1.66076-3.08489-2.47042-4.58886l-.272.111C4.67574,21.8588,4.861,23.69127,5.06139,25.67306Z" transform="translate(-3.28862 -15.66446)"/><text x="0" y="83.67107" fill="#000000" font-size="5px" font-weight="bold" font-family="'Helvetica Neue', Helvetica, Arial-Unicode, Arial, Sans-serif">Created by Maria Zamchy</text><text x="0" y="88.67107" fill="#000000" font-size="5px" font-weight="bold" font-family="'Helvetica Neue', Helvetica, Arial-Unicode, Arial, Sans-serif">from the Noun Project</text></svg>